{"title":"BBC Proms 2012 - 38. National Youth Jazz Orchestra","uid":7580936,"size":893586282,"categoryP":"video","categoryS":"music_videos","magnet":"?xt=urn:btih:b9b44654080d14c65ffee7dbe13d66c35c2f434e&amp;dn=BBC+Proms+2012+-+38.+National+Youth+Jazz+Orchestra&amp;tr=udp%3A%2F%2Ftracker.openbittorrent.com%3A80&amp;tr=udp%3A%2F%2Fopen.demonii.com%3A1337&amp;tr=udp%3A%2F%2Ftracker.coppersurfer.tk%3A6969&amp;tr=udp%3A%2F%2Fexodus.desync.com%3A6969","seeders":0,"leechers":0,"uploader":"deandominic","files":2,"time":1346238832,"description":"BBC Proms 2012 - 38. National Youth Jazz Orchestra\n\nEllington - Rockin' in Rhythm (6 mins)\nNikki Iles - Hush (8 mins)\nKenny Wheeler - Sweet Time Suite - Know Where You Are (6 mins)\nMonk - 'Round midnight (arr. M. Armstrong) (5 mins)\nRichardson - Groove Merchant (7 mins)\nChris Whiter - The Change (8 mins)\nTom Stone - Return Flight (7 mins)\nEllington - Caravan (arr. Callum Au) (8 mins)\nEllington - The Queen's Suite - Sunset and the Mockingbird (4 mins)\nTim Garland - Agro AlegrÂ¡a (c8 mins)\n\nTim Garland saxophone\nMark Mondesir drums\nNational Youth Jazz Orchestra\nMark Armstrong conductor\n\nID                                       : 1\nFormat                                   : AVC\nFormat/Info                              : Advanced Video Codec\nFormat profile                           : &lt;a class=&quot;__cf_email__&quot; href=&quot;/cdn-cgi/l/email-protection&quot; data-cfemail=&quot;f1bc90989fb1bdc2dfc1&quot;&gt;[email&amp;#160;protected]&lt;/a&gt;&lt;script data-cfhash='f9e31' type=&quot;text/javascript&quot;&gt;\n/* &lt;![CDATA[ */!function(){try{var t=&quot;currentScript&quot;in document?document.currentScript:function(){for(var t=document.getElementsByTagName(&quot;script&quot;),e=t.length;e--;)if(t[e].getAttribute(&quot;data-cfhash&quot;))return t[e]}();if(t&amp;&amp;t.previousSibling){var e,r,n,i,c=t.previousSibling,a=c.getAttribute(&quot;data-cfemail&quot;);if(a){for(e=&quot;&quot;,r=parseInt(a.substr(0,2),16),n=2;a.length-n;n+=2)i=parseInt(a.substr(n,2),16)^r,e+=String.fromCharCode(i);e=document.createTextNode(e),c.parentNode.replaceChild(e,c)}t.parentNode.removeChild(t);}}catch(u){}}()/* ]]&gt; */&lt;/script&gt;\nFormat settings, CABAC                   : Yes\nFormat settings, ReFrames                : 4 frames\nCodec ID                                 : avc1\nCodec ID/Info                            : Advanced Video Coding\nDuration                                 : 1h 19mn\nBit rate mode                            : Constant\nBit rate                                 : 1 404 Kbps\nWidth                                    : 832 pixels\nHeight                                   : 468 pixels\nDisplay aspect ratio                     : 16:9\nFrame rate mode                          : Constant\nFrame rate                               : 25.000 fps\nStandard                                 : PAL\nColor space                              : YUV\nChroma subsampling                       : 4:2:0\nBit depth                                : 8 bits\nScan type                                : Progressive\nBits/(Pixel*Frame)                       : 0.144\nStream size                              : 795 MiB (93%)\n\nAudio\nID                                       : 2\nFormat                                   : AAC\nFormat/Info                              : Advanced Audio Codec\nFormat profile                           : HE-AAC / LC\nCodec ID                                 : 40\nDuration                                 : 1h 19mn\nBit rate mode                            : Constant\nBit rate                                 : 96.0 Kbps\nChannel(s)                               : 2 channels\nChannel positions                        : Front: L R\nSampling rate                            : 48.0 KHz / 24.0 KHz\nCompression mode                         : Lossy\nStream size                              : 53.7 MiB (6%)\n","torrent":{"xt":"urn:btih:b9b44654080d14c65ffee7dbe13d66c35c2f434e","amp;dn":"BBC+Proms+2012+-+38.+National+Youth+Jazz+Orchestra","amp;tr":["udp%3A%2F%2Ftracker.openbittorrent.com%3A80","udp%3A%2F%2Fopen.demonii.com%3A1337","udp%3A%2F%2Ftracker.coppersurfer.tk%3A6969","udp%3A%2F%2Fexodus.desync.com%3A6969"],"infoHash":"b9b44654080d14c65ffee7dbe13d66c35c2f434e","infoHashBuffer":{"type":"Buffer","data":[185,180,70,84,8,13,20,198,95,254,231,219,225,61,102,195,92,47,67,78]},"announce":[],"urlList":[]}}